<svg width="66" height="66" viewBox="0 0 66 66" fill="none" xmlns="http://www.w3.org/2000/svg">
<g id="Group 92">
<path id="Line 64" d="M5 32.7591L61 32.7491" stroke="black"/>
<path id="Line 158" d="M10.3505 49.2162L55.6496 16.2921" stroke="black"/>
<path id="Line 159" d="M41.6572 59.3823L24.3428 6.12624" stroke="black"/>
<path id="Line 161" d="M55.6554 49.2081L10.3446 16.3002" stroke="black"/>
<path id="Line 160" d="M24.3523 59.3854L41.6478 6.12313" stroke="black"/>
<path id="Star 1" d="M41.0231 8.02301L38.8337 24.717L54.0274 17.462L42.4437 29.6809L59 32.7422L42.4465 35.8187L54.0416 48.0269L38.8411 40.7859L41.0459 57.4779L33.0046 42.6853L24.977 57.4854L27.1664 40.7913L11.9727 48.0463L23.5564 35.8274L7.00005 32.7662L23.5536 29.6897L11.9585 17.4815L27.159 24.7224L24.9542 8.03044L32.9955 22.8231L41.0231 8.02301Z" fill="#D9D9D9"/>
</g>
</svg>
